<svg xmlns="http://www.w3.org/2000/svg" xmlns:se="http://svg-edit.googlecode.com" xmlns:xlink="http://www.w3.org/1999/xlink" xmlns:dc="http://purl.org/dc/elements/1.1/" xmlns:cc="http://creativecommons.org/ns#" xmlns:rdf="http://www.w3.org/1999/02/22-rdf-syntax-ns#" xmlns:inkscape="http://www.inkscape.org/namespaces/inkscape" width="223" height="175">
                                    <title>my vector image</title>
                                    <!-- Created with Vector Paint - http://www.vectorpaint.yaks.com/ https://chrome.google.com/webstore/detail/hnbpdiengicdefcjecjbnjnoifekhgdo -->
                                    <rect id="backgroundrect" width="100%" height="100%" x="0" y="0" fill="#FFFFFF" stroke="none"/>
                                <g style="" class="currentLayer"><title>Layer 1</title><g class="selected"><path fill="#000000" stroke="#000000" stroke-width="2" stroke-linejoin="round" stroke-dashoffset="" fill-rule="nonzero" marker-start="" marker-mid="" marker-end="" d="M165.385591467298,23.83464274582019 C165.385591467298,34.221420403660716 145.20169800900453,42.64156849834535 120.30360280894297,42.64156849834535 M165.385591467298,23.83464274582019 L165.385591467298,23.83464274582019 C165.385591467298,34.221420403660716 145.20169800900453,42.64156849834535 120.30360280894297,42.64156849834535 C95.40551668579138,42.64156849834535 75.22162927877002,34.22143744348989 75.22162927877002,23.83464274582019 M75.22162927877002,23.83464274582019 L75.22162927877002,23.83464274582019 C75.22162927877002,13.447876447869476 95.40551668579138,5.027722673238543 120.30360280894297,5.027722673238543 C145.20169800900453,5.027722673238543 165.385591467298,13.447876447869476 165.385591467298,23.83464274582019 L165.385591467298,99.06237415564055 C165.385591467298,109.44914045359042 145.20169800900453,117.86926582850168 120.30360280894297,117.86926582850168 C95.40551668579138,117.86926582850168 75.22162927877002,109.44914045359042 75.22162927877002,99.06237415564055 L75.22162927877002,23.83464274582019 z" style="color: rgb(0, 0, 0);" class="" fill-opacity="1" id="svg_6"/><path fill="#ffffff" stroke="#ffffff" stroke-width="2" stroke-linejoin="round" stroke-dashoffset="" fill-rule="nonzero" marker-start="" marker-mid="" marker-end="" d="M97.55577059594486,36.56688342270007 C97.55577059594486,46.9536610805406 77.37187713765138,55.37380917522523 52.47378193758982,55.37380917522523 M97.55577059594486,36.56688342270007 L97.55577059594486,36.56688342270007 C97.55577059594486,46.9536610805406 77.37187713765138,55.37380917522523 52.47378193758982,55.37380917522523 C27.575695814438234,55.37380917522523 7.3918084074168755,46.95367812036977 7.3918084074168755,36.56688342270007 M7.3918084074168755,36.56688342270007 L7.3918084074168755,36.56688342270007 C7.3918084074168755,26.18011712474936 27.575695814438234,17.759963350118426 52.47378193758982,17.759963350118426 C77.37187713765138,17.759963350118426 97.55577059594486,26.18011712474936 97.55577059594486,36.56688342270007 L97.55577059594486,111.79461483252044 C97.55577059594486,122.1813811304703 77.37187713765138,130.60150650538156 52.47378193758982,130.60150650538156 C27.575695814438234,130.60150650538156 7.3918084074168755,122.1813811304703 7.3918084074168755,111.79461483252044 L7.3918084074168755,36.56688342270007 z" style="color: rgb(0, 0, 0);" class="" fill-opacity="1" id="svg_30" stroke-opacity="1"/><path fill="#000000" stroke="#000000" stroke-width="2" stroke-linejoin="round" stroke-dashoffset="" fill-rule="nonzero" marker-start="" marker-mid="" marker-end="" id="svg_2" d="M93.74624677506779,39.90021596130481 C93.74624677506779,50.286993619145335 73.5623533167743,58.70714171382997 48.664258116712745,58.70714171382997 M93.74624677506779,39.90021596130481 L93.74624677506779,39.90021596130481 C93.74624677506779,50.286993619145335 73.5623533167743,58.70714171382997 48.664258116712745,58.70714171382997 C23.76617199356116,58.70714171382997 3.5822845865397994,50.28701065897451 3.5822845865397994,39.90021596130481 M3.5822845865397994,39.90021596130481 L3.5822845865397994,39.90021596130481 C3.5822845865397994,29.513449663354095 23.76617199356116,21.093295888723162 48.664258116712745,21.093295888723162 C73.5623533167743,21.093295888723162 93.74624677506779,29.513449663354095 93.74624677506779,39.90021596130481 L93.74624677506779,115.12794737112517 C93.74624677506779,125.51471366907504 73.5623533167743,133.9348390439863 48.664258116712745,133.9348390439863 C23.76617199356116,133.9348390439863 3.5822845865397994,125.51471366907504 3.5822845865397994,115.12794737112517 L3.5822845865397994,39.90021596130481 z" style="color: rgb(0, 0, 0);" class="" fill-opacity="1"/><path fill="#ffffff" fill-opacity="1" stroke="#000000" stroke-opacity="1" stroke-width="2" stroke-dasharray="none" stroke-linejoin="round" stroke-linecap="butt" stroke-dashoffset="" fill-rule="nonzero" opacity="1" marker-start="" marker-mid="" marker-end="" d="M75.78638195618987,21.78574276259053 C75.78638195618987,9.680861624104864 95.92450350315119,-0.12409209806855874 120.78638195618987,-0.12409209806855874 C145.64826040922856,-0.12409209806855874 165.78638195618987,9.680861624104864 165.78638195618987,21.78574276259053 C165.78638195618987,33.8906239010762 145.64826040922856,43.695577623249676 120.78638195618987,43.695577623249676 C95.92450350315119,43.695577623249676 75.78638195618987,33.8906239010762 75.78638195618987,21.78574276259053 z" class="" id="svg_7"/><path fill="#ffffff" fill-opacity="1" stroke="#000000" stroke-opacity="1" stroke-width="2" stroke-dasharray="none" stroke-linejoin="round" stroke-linecap="butt" stroke-dashoffset="" fill-rule="nonzero" opacity="1" marker-start="" marker-mid="" marker-end="" d="M3.3273661099374294,37.851316931749466 C3.3273661099374294,25.7464357932638 23.465487656898745,15.941482071090377 48.32736610993743,15.941482071090377 C73.18924456297611,15.941482071090377 93.32736610993743,25.7464357932638 93.32736610993743,37.851316931749466 C93.32736610993743,49.95619807023513 73.18924456297611,59.76115179240861 48.32736610993743,59.76115179240861 C23.465487656898745,59.76115179240861 3.3273661099374294,49.95619807023513 3.3273661099374294,37.851316931749466 z" id="svg_4" class=""/><path fill="#000000" fill-opacity="1" stroke="#000000" stroke-opacity="1" stroke-width="2" stroke-dasharray="none" stroke-linejoin="round" stroke-linecap="butt" stroke-dashoffset="" fill-rule="nonzero" opacity="1" marker-start="" marker-mid="" marker-end="" d="M22.507695172089143,36.539841689574985 C22.507695172089143,28.96353479305418 34.14894985990787,22.82672620687231 48.52086922758531,22.82672620687231 C62.8927885952628,22.82672620687231 74.53404328308159,28.96353479305418 74.53404328308159,36.539841689574985 C74.53404328308159,44.11614858609573 62.8927885952628,50.252957172277604 48.52086922758531,50.252957172277604 C34.14894985990787,50.252957172277604 22.507695172089143,44.11614858609573 22.507695172089143,36.539841689574985 z" class="" id="svg_3"/><path fill="#000000" fill-opacity="1" stroke="#000000" stroke-opacity="1" stroke-width="2" stroke-dasharray="none" stroke-linejoin="round" stroke-linecap="butt" stroke-dashoffset="" fill-rule="nonzero" opacity="1" marker-start="" marker-mid="" marker-end="" d="M94.96671020727075,21.70377625717282 C94.96671020727075,14.353898734910558 106.26004841671175,8.40049794187803 120.20244126787338,8.40049794187803 C134.14483411903512,8.40049794187803 145.43817232847607,14.353898734910558 145.43817232847607,21.70377625717282 C145.43817232847607,29.05365377943508 134.14483411903512,35.007054572467496 120.20244126787338,35.007054572467496 C106.26004841671175,35.007054572467496 94.96671020727075,29.05365377943508 94.96671020727075,21.70377625717282 z" class="" id="svg_5"/><path fill="#ffffff" stroke="#000000" stroke-width="2" stroke-linejoin="round" stroke-dashoffset="" fill-rule="nonzero" marker-start="" marker-mid="" marker-end="" id="svg_1" d="M34.14273321268786,111.61175718259472 L188.857278362356,111.61175718259472 L188.857278362356,111.61175718259472 C209.1253239293781,111.61175718259472 225.55578189384687,114.36410679810376 225.55578189384687,117.75930042593933 C225.55578189384687,121.1544928455092 209.12531627467575,123.90684125275692 188.857278362356,123.90684125275692 L34.14273321268786,123.90684125275692 L34.14273321268786,123.90684125275692 C13.874710609751105,123.90684125275692 -2.555770318786756,121.1544928455092 -2.555770318786756,117.75930042593933 C-2.555770318786756,114.36410558984039 13.874710609751105,111.61175718259472 34.14273321268786,111.61175718259472 z" style="color: rgb(0, 0, 0);" class="" transform="rotate(-15.54217529296875 111.50002288818368,117.75933074951172) " fill-opacity="1"/><path fill="#ffffff" stroke="#000000" stroke-width="2" stroke-linejoin="round" stroke-dashoffset="" fill-rule="nonzero" marker-start="" marker-mid="" marker-end="" d="M51.40105591461048,97.2950226046546 L199.28556681475249,97.2950226046546 L199.28556681475249,97.2950226046546 C218.65885846410123,97.2950226046546 234.3639768005205,100.04737222016365 234.3639768005205,103.44256584799922 C234.3639768005205,106.83775826756909 218.65885114732367,109.59010667481681 199.28556681475249,109.59010667481681 L51.40105591461048,109.59010667481681 L51.40105591461048,109.59010667481681 C32.027786215573656,109.59010667481681 16.322645928858037,106.83775826756909 16.322645928858037,103.44256584799922 C16.322645928858037,100.04737101190028 32.027786215573656,97.2950226046546 51.40105591461048,97.2950226046546 z" style="color: rgb(0, 0, 0);" class="" transform="rotate(-37.8030891418457 125.3433456420898,103.44258880615232) " fill-opacity="1" id="svg_8"/></g></g></svg>